<svg width="925.0409856" height="189.7704856" xmlns="http://www.w3.org/2000/svg" version="1.1">

 <g>
  <title>Layer 1</title>
  <path fill="#ffffff" fill-rule="nonzero" d="m365.2207,0l0,26.29297l28.89063,0l0,-26.29297l-28.89063,0zm-253.35156,0.33984l0,37.375l-15.98047,0l0,23.74024l15.98047,0l0,86.33594c0,21.30874 12.1,31.19726 33.75,31.19726c4.86375,0.19625 9.73172,-0.32195 14.44922,-1.5332l0,-24.76172l-9.54492,0c-6.695,0 -9.80664,-4.26094 -9.80664,-11.33594l0,-79.90234l19.35156,0l0,-23.74024l-19.43359,0l0,-37.375l-28.76563,0zm186.10547,0l0,37.375l-15.98242,0l0,23.74024l15.98242,0l0,86.33594c0,21.30874 12.10375,31.19726 33.75,31.19726c4.8675,0.19125 9.72977,-0.32695 14.44727,-1.5332l0,-24.76172l-9.50196,0c-6.695,0 -9.80469,-4.26094 -9.80469,-11.33594l0,-79.90234l19.30665,0l0,-23.74024l-19.34571,0l0,-37.375l-28.85156,0zm229.14453,0l0,37.375l-15.98242,0l0,23.74024l15.98242,0l0,86.33594c0,21.30874 12.10391,31.19726 33.75391,31.19726c4.86375,0.19125 9.73172,-0.32695 14.44922,-1.5332l0,-24.76172l-9.55079,0c-6.68875,0 -9.80078,-4.26094 -9.80078,-11.33594l0,-79.90234l19.34766,0l0,-23.74024l-19.34766,0l0,-37.375l-28.85156,0zm-485.18555,34.6875c-21.81625,0.1325 -38.86718,15.34297 -38.86718,37.41797c0,37.88625 54.16406,46.8793 54.16406,70.87305c0.14125,3.37375 -1.18547,6.64695 -3.63672,8.9707c-2.44625,2.32875 -5.78078,3.48633 -9.14453,3.17383c-13.125,0 -17.26133,-10.35672 -19.04883,-21.94922l-25.40039,6.82227c4.2625,24.205 18.83836,38.65234 44.06836,38.65234c23.48125,0 40.48242,-12.78305 40.48242,-37.37305c0,-41.255 -54.12109,-49.98968 -54.12109,-71.67968c0,-7.2025 5.15695,-11.08399 12.7832,-11.08399c9.2925,0 14.44789,6.22469 16.49414,17.30469l24.50195,-4.26172c-4.2625,-21.65125 -19.60414,-36.86719 -42.27539,-36.86719zm415.25391,0c-21.69,0 -38.69531,15.2161 -38.69531,37.1211c0,37.885 54.12109,46.87929 54.12109,70.87304c0.14125,3.37375 -1.18742,6.64571 -3.63867,8.97071c-2.44625,2.32875 -5.78148,3.48632 -9.14649,3.17383c-13.125,0 -17.04359,-10.35672 -19.08984,-21.94922l-25.23047,6.99218c4.2625,24.20375 18.79266,38.65235 44.06641,38.65235c23.4375,0 40.48437,-12.78805 40.48437,-37.37305c-0.25375,-41.1275 -54.3789,-49.86273 -54.3789,-71.55273c0,-7.2025 5.11711,-11.08399 12.78711,-11.08399c9.2875,0 14.44898,6.22469 16.49023,17.30469l24.50586,-4.26172c-4.2625,-21.65125 -19.60414,-36.86719 -42.27539,-36.86719zm-234.98438,0.13282c-26.8075,0 -44.8796,15.21062 -46.4121,43.29687l28.76953,0c0.5525,-11.84625 3.36523,-19.60547 16.49023,-19.60547c9.54625,0 14.19336,6.22586 14.19336,17.81836l0,8.22266c-41.50875,15.7275 -61.58203,32.47344 -61.58203,62.89844c0,17.77375 9.76133,31.19726 29.36133,31.19726c13.935,0 22.9289,-4.64508 33.7539,-13.42383c0.25375,3.36375 1.31938,6.98867 1.57813,10.82617l27.57226,0c-0.9225,-4.77 -1.49398,-9.59851 -1.70898,-14.44726l0,-89.15625c0,-25.2675 -15.20938,-37.62695 -42.01563,-37.62695zm415.20899,0c-26.8075,0 -44.83469,15.21062 -46.36719,43.29687l28.85352,0c0.5125,-11.84625 3.36328,-19.60547 16.48828,-19.60547c9.54625,0 14.19531,6.22586 14.19531,17.81836l0,8.22266c-41.50875,15.7275 -61.62695,32.47344 -61.62695,62.89844c0,17.77375 9.80445,31.19726 29.4082,31.19726c13.8925,0 22.925,-4.64508 33.75,-13.42383c0.255,3.36375 1.28141,6.98867 1.53516,10.82617l27.61718,0c-0.9725,-4.83875 -1.58828,-9.73585 -1.83203,-14.6621l0,-88.94141c0,-25.2675 -15.21523,-37.62695 -42.02148,-37.62695zm-272.19141,2.55468l0,138.67188l28.89063,0l0,-138.67188l-28.89063,0zm-129.89258,68.06055l0,36.60547c-4.90249,6.94375 -11.34015,12.78515 -19.34765,12.78516c-8.525,0 -13.38281,-3.62516 -13.38281,-12.78516c0,-12.10375 6.43672,-21.64922 32.73046,-36.60547zm415.25391,0l0,36.60547c-4.9025,6.94375 -11.33781,12.78515 -19.35156,12.78516c-8.735,0 -13.37891,-3.62516 -13.37891,-12.78516c0,-12.10375 6.43672,-21.64922 32.73047,-36.60547z" id="path4499"/>
  <path fill="#ffffff" fill-rule="nonzero" d="m741.82031,0c-1.66,0 -3.25523,0.65844 -4.42773,1.83594c-1.17625,1.17625 -1.83594,2.76773 -1.83594,4.42773l0,113.48633l0.89258,0c0,0 26.93422,-0.50758 38.35547,-6.51758c9.8,-5.7625 18.27742,-13.51726 24.88867,-22.75976l6.73242,-9.50196l2.13477,-3.02734c0.25375,-0.2975 1.36125,-1.91406 2,-2.85156c0.64,-0.9375 3.40875,-4.8593 6.09375,-8.7793c10.445,-14.42875 23.82,-26.47984 39.25,-35.37109c24.8875,-12.78875 57.875,-11.50782 57.875,-11.50782l0.50781,0l0,-12.78515c0.1075,-1.72875 -0.5032,-3.42164 -1.68945,-4.68164c-1.18625,-1.26 -2.84157,-1.9668 -4.57032,-1.9668l-166.20703,0zm172.42774,59.28125c-0.53125,0.13625 -1.07485,0.20594 -1.6211,0.21094c0,0 -26.89,0.5125 -38.4375,6.5625c-9.8,5.74125 -18.27742,13.48109 -24.88867,22.71484l-6.60547,9.54492c-0.98125,1.3675 -1.91812,2.72985 -2.17187,3.02735l-2.00782,2.85546l-6.09374,8.78126c0,0 -16.23555,23.43734 -39.24805,35.37109c-23.8675,12.40125 -55.10336,11.5914 -57.66211,11.50391l0,12.7871c-0.0187,1.675 0.63039,3.29118 1.80664,4.48243c1.1775,1.19125 2.78398,1.86523 4.45898,1.86523l166.20704,0c1.65999,0 3.25023,-0.65969 4.42773,-1.83594c1.17625,-1.1725 1.83594,-2.76773 1.83594,-4.42773l0,-113.44336z" id="path4517"/>
 </g>
</svg>